# xmcd
#
# Track frame offsets:
#	150
#	9104
#	19694
#	40568
#	52576
#	69010
#	82699
#	111247
#	124168
#	136909
#	145493
#	176743
#	197738
#	213553
#	228312
#	254938
#	266406
#	298328
#	319750
#	335205
#
# Disc length: 4784 seconds
#
# Revision: 1
# Processed by: cddbd v1.5.2PL0 Copyright (c) Steve Scherf et al.
# Submitted via: audiograbber 1.83.01
#
DISCID=2012ae14
DTITLE=Cuby and the Blizzards - Collected ( disc I)
DYEAR=2010
DGENRE=Blues
TTITLE0=Stumble and Fall
TTITLE1=Your Body Not Your Soul
TTITLE2=Back Home (A Man)
TTITLE3=Feeling Like A Suit-Case
TTITLE4=Nostalgic Toilet
TTITLE5=Desolation Blues
TTITLE6=Hobo Blues
TTITLE7=Just For Fun
TTITLE8=The Sunshine Of Your Shadow
TTITLE9=Another Day Another Road
TTITLE10=Somebody Will Know Someday
TTITLE11=Another Land
TTITLE12=Window Of My Eyes
TTITLE13=Checkin Up My Baby
TTITLE14=The Sky Is Crying
TTITLE15=Appleknockers Flophouse
TTITLE16=Go Down Sunshine
TTITLE17=Night Train
TTITLE18=Thursday Night
TTITLE19=Too Blind To See
EXTD=
EXTT0=
EXTT1=
EXTT2=
EXTT3=
EXTT4=
EXTT5=
EXTT6=
EXTT7=
EXTT8=
EXTT9=
EXTT10=
EXTT11=
EXTT12=
EXTT13=
EXTT14=
EXTT15=
EXTT16=
EXTT17=
EXTT18=
EXTT19=
PLAYORDER=
